<svg xmlns="http://www.w3.org/2000/svg" xmlns:xlink="http://www.w3.org/1999/xlink" version="1.1" width="256" height="256" viewBox="0 0 256 256" xml:space="preserve">

<defs>
</defs>
<g style="stroke: none; stroke-width: 0; stroke-dasharray: none; stroke-linecap: butt; stroke-linejoin: miter; stroke-miterlimit: 10; fill: none; fill-rule: nonzero; opacity: 1;" transform="translate(1.4065934065934016 1.4065934065934016) scale(2.81 2.81)" >
	<path d="M 45 26.706 c -1.104 0 -2 -0.896 -2 -2 V 12.875 c 0 -1.104 0.896 -2 2 -2 s 2 0.896 2 2 v 11.831 C 47 25.81 46.104 26.706 45 26.706 z" style="stroke: none; stroke-width: 1; stroke-dasharray: none; stroke-linecap: butt; stroke-linejoin: miter; stroke-miterlimit: 10; fill: rgb(0,0,0); fill-rule: nonzero; opacity: 1;" transform=" matrix(1 0 0 1 0 0) " stroke-linecap="round" />
	<path d="M 13.831 57.875 H 2 c -1.104 0 -2 -0.896 -2 -2 s 0.896 -2 2 -2 h 11.831 c 1.104 0 2 0.896 2 2 S 14.935 57.875 13.831 57.875 z" style="stroke: none; stroke-width: 1; stroke-dasharray: none; stroke-linecap: butt; stroke-linejoin: miter; stroke-miterlimit: 10; fill: rgb(0,0,0); fill-rule: nonzero; opacity: 1;" transform=" matrix(1 0 0 1 0 0) " stroke-linecap="round" />
	<path d="M 88 57.875 H 76.17 c -1.104 0 -2 -0.896 -2 -2 s 0.896 -2 2 -2 H 88 c 1.104 0 2 0.896 2 2 S 89.104 57.875 88 57.875 z" style="stroke: none; stroke-width: 1; stroke-dasharray: none; stroke-linecap: butt; stroke-linejoin: miter; stroke-miterlimit: 10; fill: rgb(0,0,0); fill-rule: nonzero; opacity: 1;" transform=" matrix(1 0 0 1 0 0) " stroke-linecap="round" />
	<path d="M 67.04 35.835 c -0.512 0 -1.023 -0.195 -1.414 -0.586 c -0.781 -0.781 -0.781 -2.047 0 -2.828 l 8.365 -8.366 c 0.781 -0.781 2.047 -0.781 2.828 0 c 0.781 0.781 0.781 2.047 0 2.828 l -8.365 8.366 C 68.063 35.64 67.552 35.835 67.04 35.835 z" style="stroke: none; stroke-width: 1; stroke-dasharray: none; stroke-linecap: butt; stroke-linejoin: miter; stroke-miterlimit: 10; fill: rgb(0,0,0); fill-rule: nonzero; opacity: 1;" transform=" matrix(1 0 0 1 0 0) " stroke-linecap="round" />
	<path d="M 22.96 35.835 c -0.512 0 -1.024 -0.195 -1.414 -0.586 l -8.366 -8.366 c -0.781 -0.781 -0.781 -2.047 0 -2.828 c 0.78 -0.781 2.048 -0.781 2.828 0 l 8.366 8.366 c 0.781 0.781 0.781 2.047 0 2.828 C 23.984 35.64 23.472 35.835 22.96 35.835 z" style="stroke: none; stroke-width: 1; stroke-dasharray: none; stroke-linecap: butt; stroke-linejoin: miter; stroke-miterlimit: 10; fill: rgb(0,0,0); fill-rule: nonzero; opacity: 1;" transform=" matrix(1 0 0 1 0 0) " stroke-linecap="round" />
	<path d="M 33.073 29.079 c -0.785 0 -1.53 -0.465 -1.849 -1.235 l -2.283 -5.513 c -0.423 -1.021 0.062 -2.19 1.083 -2.613 c 1.019 -0.422 2.19 0.062 2.613 1.083 l 2.283 5.513 c 0.423 1.021 -0.062 2.19 -1.083 2.613 C 33.587 29.029 33.328 29.079 33.073 29.079 z" style="stroke: none; stroke-width: 1; stroke-dasharray: none; stroke-linecap: butt; stroke-linejoin: miter; stroke-miterlimit: 10; fill: rgb(0,0,0); fill-rule: nonzero; opacity: 1;" transform=" matrix(1 0 0 1 0 0) " stroke-linecap="round" />
	<path d="M 56.927 29.079 c -0.255 0 -0.515 -0.049 -0.765 -0.153 c -1.021 -0.423 -1.505 -1.593 -1.082 -2.613 l 2.284 -5.513 c 0.423 -1.02 1.592 -1.507 2.613 -1.082 c 1.021 0.423 1.505 1.593 1.082 2.613 l -2.284 5.513 C 58.456 28.614 57.712 29.079 56.927 29.079 z" style="stroke: none; stroke-width: 1; stroke-dasharray: none; stroke-linecap: butt; stroke-linejoin: miter; stroke-miterlimit: 10; fill: rgb(0,0,0); fill-rule: nonzero; opacity: 1;" transform=" matrix(1 0 0 1 0 0) " stroke-linecap="round" />
	<path d="M 73.798 45.947 c -0.785 0 -1.529 -0.465 -1.849 -1.235 c -0.423 -1.021 0.062 -2.19 1.082 -2.613 l 5.513 -2.283 c 1.023 -0.423 2.19 0.062 2.613 1.083 c 0.423 1.021 -0.062 2.19 -1.082 2.613 l -5.513 2.283 C 74.312 45.898 74.053 45.947 73.798 45.947 z" style="stroke: none; stroke-width: 1; stroke-dasharray: none; stroke-linecap: butt; stroke-linejoin: miter; stroke-miterlimit: 10; fill: rgb(0,0,0); fill-rule: nonzero; opacity: 1;" transform=" matrix(1 0 0 1 0 0) " stroke-linecap="round" />
	<path d="M 16.202 45.947 c -0.255 0 -0.514 -0.049 -0.764 -0.153 l -5.513 -2.283 c -1.021 -0.422 -1.505 -1.592 -1.083 -2.613 c 0.422 -1.021 1.592 -1.508 2.613 -1.083 l 5.513 2.283 c 1.021 0.422 1.505 1.592 1.083 2.613 C 17.732 45.482 16.987 45.947 16.202 45.947 z" style="stroke: none; stroke-width: 1; stroke-dasharray: none; stroke-linecap: butt; stroke-linejoin: miter; stroke-miterlimit: 10; fill: rgb(0,0,0); fill-rule: nonzero; opacity: 1;" transform=" matrix(1 0 0 1 0 0) " stroke-linecap="round" />
	<path d="M 64.451 69.353 H 25.549 c -0.707 0 -1.362 -0.373 -1.722 -0.982 c -2.233 -3.776 -3.414 -8.098 -3.414 -12.495 c 0 -13.557 11.029 -24.586 24.586 -24.586 s 24.586 11.029 24.586 24.586 c 0 4.398 -1.181 8.719 -3.413 12.495 C 65.813 68.979 65.158 69.353 64.451 69.353 z M 26.726 65.353 h 36.548 c 1.516 -2.918 2.312 -6.171 2.312 -9.478 c 0 -11.351 -9.234 -20.586 -20.586 -20.586 c -11.351 0 -20.586 9.235 -20.586 20.586 C 24.414 59.181 25.21 62.435 26.726 65.353 z" style="stroke: none; stroke-width: 1; stroke-dasharray: none; stroke-linecap: butt; stroke-linejoin: miter; stroke-miterlimit: 10; fill: rgb(0,0,0); fill-rule: nonzero; opacity: 1;" transform=" matrix(1 0 0 1 0 0) " stroke-linecap="round" />
	<path d="M 80.351 69.353 H 9.649 c -1.104 0 -2 -0.896 -2 -2 s 0.896 -2 2 -2 h 70.701 c 1.104 0 2 0.896 2 2 S 81.455 69.353 80.351 69.353 z" style="stroke: none; stroke-width: 1; stroke-dasharray: none; stroke-linecap: butt; stroke-linejoin: miter; stroke-miterlimit: 10; fill: rgb(0,0,0); fill-rule: nonzero; opacity: 1;" transform=" matrix(1 0 0 1 0 0) " stroke-linecap="round" />
	<path d="M 70.578 79.125 H 19.422 c -1.104 0 -2 -0.896 -2 -2 s 0.896 -2 2 -2 h 51.156 c 1.104 0 2 0.896 2 2 S 71.683 79.125 70.578 79.125 z" style="stroke: none; stroke-width: 1; stroke-dasharray: none; stroke-linecap: butt; stroke-linejoin: miter; stroke-miterlimit: 10; fill: rgb(0,0,0); fill-rule: nonzero; opacity: 1;" transform=" matrix(1 0 0 1 0 0) " stroke-linecap="round" />
</g>
</svg>